<svg width="23" height="22" viewBox="0 0 23 22" fill="none" xmlns="http://www.w3.org/2000/svg">
<path fill-rule="evenodd" clip-rule="evenodd" d="M7.22852 2.05033C7.22852 1.13423 7.8905 0.391571 8.70709 0.391571H12.6499C13.4666 0.391571 14.1285 1.13423 14.1285 2.05033V6.47369C14.1285 7.38982 13.4666 8.13245 12.6499 8.13245H8.70709C7.8905 8.13245 7.22852 7.38982 7.22852 6.47369V2.05033ZM8.70709 1.49741C8.43489 1.49741 8.21423 1.74496 8.21423 2.05033V6.47369C8.21423 6.77907 8.43489 7.02661 8.70709 7.02661H12.6499C12.9221 7.02661 13.1428 6.77907 13.1428 6.47369V2.05033C13.1428 1.74496 12.9221 1.49741 12.6499 1.49741H8.70709Z" fill="#FFFEED"/>
<path fill-rule="evenodd" clip-rule="evenodd" d="M0 15.2199C0 14.3038 0.661981 13.5611 1.47857 13.5611H5.42142C6.23804 13.5611 6.89999 14.3038 6.89999 15.2199V19.6432C6.89999 20.5594 6.23804 21.302 5.42142 21.302H1.47857C0.661981 21.302 0 20.5594 0 19.6432V15.2199ZM1.47857 14.667C1.20638 14.667 0.985713 14.9145 0.985713 15.2199V19.6432C0.985713 19.9486 1.20637 20.1962 1.47857 20.1962H5.42142C5.69363 20.1962 5.91428 19.9486 5.91428 19.6432V15.2199C5.91428 14.9145 5.69363 14.667 5.42142 14.667H1.47857Z" fill="#FFFEED"/>
<path fill-rule="evenodd" clip-rule="evenodd" d="M17.5785 0.391571C16.7619 0.391571 16.1 1.13423 16.1 2.05033V6.47369C16.1 7.38982 16.7619 8.13245 17.5785 8.13245H21.5214C22.338 8.13245 23 7.38982 23 6.47369V2.05033C23 1.13423 22.338 0.391571 21.5214 0.391571H17.5785ZM17.0857 2.05033C17.0857 1.74496 17.3063 1.49741 17.5785 1.49741H21.5214C21.7936 1.49741 22.0143 1.74496 22.0143 2.05033V6.47369C22.0143 6.77907 21.7936 7.02661 21.5214 7.02661H17.5785C17.3063 7.02661 17.0857 6.77907 17.0857 6.47369V2.05033Z" fill="#FFFEED"/>
<path fill-rule="evenodd" clip-rule="evenodd" d="M8.87146 15.2199C8.87146 14.3038 9.53342 13.5611 10.35 13.5611H14.2929C15.1095 13.5611 15.7715 14.3038 15.7715 15.2199V19.6432C15.7715 20.5594 15.1095 21.302 14.2929 21.302H10.35C9.53342 21.302 8.87146 20.5594 8.87146 19.6432V15.2199ZM10.35 14.667C10.0778 14.667 9.85717 14.9145 9.85717 15.2199V19.6432C9.85717 19.9486 10.0778 20.1962 10.35 20.1962H14.2929C14.5651 20.1962 14.7857 19.9486 14.7857 19.6432V15.2199C14.7857 14.9145 14.5651 14.667 14.2929 14.667H10.35Z" fill="#FFFEED"/>
</svg>
