<svg width="40" height="37" viewBox="0 0 40 37" fill="none" xmlns="http://www.w3.org/2000/svg">
<path d="M12 2C10.3432 2 9 3.34315 9 5V13C9 14.6569 10.3432 16 12 16H20C21.6569 16 23 14.6569 23 13V5C23 3.34315 21.6569 2 20 2H12Z" fill="#FFFEED"/>
<path d="M3 22C1.34315 22 0 23.3431 0 25V33C0 34.6569 1.34315 36 3 36H11C12.6569 36 14 34.6569 14 33V25C14 23.3431 12.6569 22 11 22H3Z" fill="#FFFEED"/>
<path fill-rule="evenodd" clip-rule="evenodd" d="M29 2C27.3431 2 26 3.34315 26 5V13C26 14.6569 27.3431 16 29 16H37C38.6569 16 40 14.6569 40 13V5C40 3.34315 38.6569 2 37 2H29Z" fill="#FFFEED"/>
<path d="M21 22C19.3431 22 18 23.3431 18 25V33C18 34.6569 19.3431 36 21 36H29C30.6569 36 32 34.6569 32 33V25C32 23.3431 30.6569 22 29 22H21Z" fill="#FFFEED"/>
</svg>
