<svg xmlns="http://www.w3.org/2000/svg" viewBox="0 0 51.01 9.96"><defs><style>.cls-1{fill:#fffeed;}</style></defs><title>Recurso 2</title><g id="Capa_2" data-name="Capa 2"><g id="Capa_1-2" data-name="Capa 1"><path class="cls-1" d="M.2,9.83.76,6.32H0V5.86H.84l.32-2H.22V3.37h1L1.76.11h.6L1.85,3.37H3.1L3.62.11h.6L3.7,3.37h.69v.47H3.64l-.34,2h.86v.46H3.23L2.66,9.83h-.6l.57-3.51H1.37L.8,9.83Zm1.24-4H2.69l.33-2H1.76Z"/><path class="cls-1" d="M5.26,9.83,7.3.11h.75l2,9.72H9.44l-.5-2.69H6.42L5.9,9.83ZM6.52,6.66H8.86L7.68.9Z"/><path class="cls-1" d="M11.39,9.83V.11h2A2.93,2.93,0,0,1,14.5.29a1.68,1.68,0,0,1,.69.53,2.15,2.15,0,0,1,.34.77,4,4,0,0,1,.11.94,3.46,3.46,0,0,1-.1.82,1.76,1.76,0,0,1-.33.78,1.16,1.16,0,0,1-.71.45,1.61,1.61,0,0,1,.85.58,2.27,2.27,0,0,1,.4.91,4.47,4.47,0,0,1,.1.93,6,6,0,0,1-.08,1.05,2.64,2.64,0,0,1-.3.91,1.55,1.55,0,0,1-.66.63,2.28,2.28,0,0,1-1.13.24ZM12,4.37h1.64a1.26,1.26,0,0,0,.83-.25,1.37,1.37,0,0,0,.4-.67A3.32,3.32,0,0,0,15,2.53a3.25,3.25,0,0,0-.13-1,1.24,1.24,0,0,0-.51-.68A2.15,2.15,0,0,0,13.24.64H12Zm0,4.94H13.6a1.38,1.38,0,0,0,1.29-.56A3.59,3.59,0,0,0,15.21,7a4,4,0,0,0-.13-1.07,1.55,1.55,0,0,0-.47-.77,1.37,1.37,0,0,0-.92-.29H12Z"/><path class="cls-1" d="M19.19,10a2.44,2.44,0,0,1-1.27-.31,2,2,0,0,1-.75-.88,3.77,3.77,0,0,1-.32-1.33l.56-.18a5.7,5.7,0,0,0,.26,1.13,1.63,1.63,0,0,0,.53.76,2,2,0,0,0,2.13-.09,1.51,1.51,0,0,0,.42-1.2,2.06,2.06,0,0,0-.33-1.15,7,7,0,0,0-.93-1.1L17.71,3.84a3.43,3.43,0,0,1-.65-.91,2.41,2.41,0,0,1-.2-.94A1.85,1.85,0,0,1,17.45.52,2.25,2.25,0,0,1,19,0a2.71,2.71,0,0,1,.88.13,1.7,1.7,0,0,1,.69.4,2,2,0,0,1,.47.75,4.46,4.46,0,0,1,.21,1.16l-.55.13a3.75,3.75,0,0,0-.23-1.14,1.32,1.32,0,0,0-.53-.68A1.69,1.69,0,0,0,19,.53,1.83,1.83,0,0,0,17.9.86a1.3,1.3,0,0,0-.44,1.08,1.79,1.79,0,0,0,.15.72,2.49,2.49,0,0,0,.56.76l1.75,1.73a6.88,6.88,0,0,1,1,1.23,2.5,2.5,0,0,1,.43,1.43A2.33,2.33,0,0,1,21.08,9a1.71,1.71,0,0,1-.76.7A2.71,2.71,0,0,1,19.19,10Z"/><path class="cls-1" d="M24.83,10a2.32,2.32,0,0,1-1.47-.4,1.92,1.92,0,0,1-.7-1.06A5.17,5.17,0,0,1,22.46,7V2.9a4.87,4.87,0,0,1,.21-1.49,1.87,1.87,0,0,1,.72-1A2.4,2.4,0,0,1,24.83,0a2.24,2.24,0,0,1,1.33.34,1.76,1.76,0,0,1,.68,1,4.48,4.48,0,0,1,.21,1.45v.49h-.63V2.74a4.55,4.55,0,0,0-.13-1.19A1.4,1.4,0,0,0,25.81.8a1.63,1.63,0,0,0-1-.26,1.73,1.73,0,0,0-1.07.29,1.37,1.37,0,0,0-.5.8,4.82,4.82,0,0,0-.14,1.2v4.3a4.4,4.4,0,0,0,.15,1.23,1.4,1.4,0,0,0,.51.78,1.7,1.7,0,0,0,1,.28,1.52,1.52,0,0,0,1-.28,1.36,1.36,0,0,0,.48-.77,5,5,0,0,0,.12-1.16V6.62h.63V7.1a5.48,5.48,0,0,1-.19,1.48,1.92,1.92,0,0,1-.68,1A2.15,2.15,0,0,1,24.83,10Z"/><path class="cls-1" d="M28.55,9.83V.11h.65V9.83Z"/><path class="cls-1" d="M33,10a2.4,2.4,0,0,1-1.26-.31,1.92,1.92,0,0,1-.76-.88,4,4,0,0,1-.32-1.33l.57-.18a5.72,5.72,0,0,0,.25,1.13,1.65,1.65,0,0,0,.54.76,1.62,1.62,0,0,0,1,.27,1.69,1.69,0,0,0,1.14-.36,1.54,1.54,0,0,0,.41-1.2,2.06,2.06,0,0,0-.33-1.15,7,7,0,0,0-.93-1.1L31.48,3.84a3,3,0,0,1-.65-.91A2.25,2.25,0,0,1,30.62,2a1.82,1.82,0,0,1,.6-1.47A2.23,2.23,0,0,1,32.76,0a2.77,2.77,0,0,1,.89.13,1.84,1.84,0,0,1,.69.4,2,2,0,0,1,.46.75A4.89,4.89,0,0,1,35,2.44l-.56.13a3.78,3.78,0,0,0-.22-1.14,1.37,1.37,0,0,0-.53-.68,1.72,1.72,0,0,0-.94-.22,1.78,1.78,0,0,0-1.1.33,1.27,1.27,0,0,0-.45,1.08,1.79,1.79,0,0,0,.15.72,2.49,2.49,0,0,0,.56.76l1.75,1.73a6.94,6.94,0,0,1,1,1.23,2.57,2.57,0,0,1,.42,1.43A2.43,2.43,0,0,1,34.85,9a1.74,1.74,0,0,1-.77.7A2.68,2.68,0,0,1,33,10Z"/><path class="cls-1" d="M35.92,9.83,38,.11h.75l2,9.72H40.1l-.5-2.69H37.08l-.52,2.69Zm1.25-3.17h2.35L38.34.9Z"/><path class="cls-1" d="M44,10a2.19,2.19,0,0,1-1.18-.29,1.61,1.61,0,0,1-.65-.8A3.14,3.14,0,0,1,42,7.67V7.49h.6v.19a2.91,2.91,0,0,0,.16,1,1.22,1.22,0,0,0,.46.6,1.47,1.47,0,0,0,.82.2,1.8,1.8,0,0,0,.82-.18,1.33,1.33,0,0,0,.57-.67,3.44,3.44,0,0,0,.21-1.34,3.23,3.23,0,0,0-.35-1.59A1.29,1.29,0,0,0,44,5h-.28V4.46H44A1.39,1.39,0,0,0,45.25,4a2.84,2.84,0,0,0,.35-1.58A2.62,2.62,0,0,0,45.28,1,1.21,1.21,0,0,0,44.15.52,1.59,1.59,0,0,0,43,.92a2,2,0,0,0-.41,1.36v.14H42V2.27a3.14,3.14,0,0,1,.21-1.2,1.54,1.54,0,0,1,.68-.79A2.52,2.52,0,0,1,44.14,0a2.13,2.13,0,0,1,1.21.32,1.89,1.89,0,0,1,.69.86,3.11,3.11,0,0,1,.22,1.21,2.94,2.94,0,0,1-.4,1.68,1.55,1.55,0,0,1-1,.69,1.51,1.51,0,0,1,.63.34,2,2,0,0,1,.53.78,3.45,3.45,0,0,1,.22,1.36A4.17,4.17,0,0,1,46,8.65a2,2,0,0,1-.72,1A2.23,2.23,0,0,1,44,10Z"/><path class="cls-1" d="M49.15,9.94a1.32,1.32,0,0,1-1.27-.69A5.24,5.24,0,0,1,47.52,7V5.75a8.36,8.36,0,0,1,.13-1.64,1.84,1.84,0,0,1,.48-1,1.38,1.38,0,0,1,1-.34,1.4,1.4,0,0,1,.75.2,2,2,0,0,1,.51.44V.11H51V9.83h-.63V9.3a2.39,2.39,0,0,1-.5.43A1.28,1.28,0,0,1,49.15,9.94Zm.08-.5a1.22,1.22,0,0,0,.65-.18,2.51,2.51,0,0,0,.5-.4v-5a4.41,4.41,0,0,0-.49-.4,1.13,1.13,0,0,0-.67-.2.82.82,0,0,0-.86.55,5.4,5.4,0,0,0-.2,1.76V7a7.62,7.62,0,0,0,.09,1.38,1.41,1.41,0,0,0,.32.78A.85.85,0,0,0,49.23,9.44Z"/></g></g></svg>